<svg width="37" height="37" viewBox="0 0 37 37" fill="none" xmlns="http://www.w3.org/2000/svg">
<path d="M23.7222 7.98148H12.6111M23.7222 7.98148C28.9593 7.98148 31.5796 7.98148 33.2056 9.60926C34.8333 11.2352 34.8333 13.8556 34.8333 19.0926V23.7222C34.8333 28.9593 34.8333 31.5796 33.2056 33.2056C31.5796 34.8333 28.9593 34.8333 23.7222 34.8333H12.6111C7.37407 34.8333 4.7537 34.8333 3.12778 33.2056C1.5 31.5796 1.5 28.9593 1.5 23.7222V19.0926C1.5 13.8556 1.5 11.2352 3.12778 9.60926C4.7537 7.98148 7.37407 7.98148 12.6111 7.98148M23.7222 7.98148V7.05556C23.7222 4.43519 23.7222 3.12593 22.9074 2.31481C22.0944 1.5 20.787 1.5 18.1667 1.5C15.5463 1.5 14.237 1.5 13.4259 2.31481C12.6111 3.12778 12.6111 4.43704 12.6111 7.05556V7.98148" stroke="black" stroke-width="3" stroke-linecap="round" stroke-linejoin="round"/>
<path d="M34.8333 15.3898C32.8688 15.3898 30.9847 14.6094 29.5955 13.2202C28.2063 11.8311 27.4259 9.94699 27.4259 7.98242M1.5 27.4269C3.46457 27.4269 5.34867 28.2073 6.73783 29.5964C8.12699 30.9856 8.90741 32.8697 8.90741 34.8343M1.5 15.3898C3.46457 15.3898 5.34867 14.6094 6.73783 13.2202C8.12699 11.8311 8.90741 9.94699 8.90741 7.98242M34.8333 27.4269C32.8688 27.4269 30.9847 28.2073 29.5955 29.5964C28.2063 30.9856 27.4259 32.8697 27.4259 34.8343M22.7963 16.3158V16.3343M13.0741 18.1676L11.6852 19.5565L13.0741 20.9454L14.463 19.5565L13.0741 18.1676ZM21.8704 27.0565L19.0926 26.5009L21.3148 24.2787L21.8704 27.0565Z" stroke="black" stroke-width="3" stroke-linecap="round" stroke-linejoin="round"/>
</svg>
